<svg width="128px" height="128px" viewBox="0 0 5.76 5.76" xmlns="http://www.w3.org/2000/svg"
    xmlns:xlink="http://www.w3.org/1999/xlink" aria-hidden="true" role="img" class="iconify iconify--twemoji"
    preserveAspectRatio="xMidYMid meet">
    <path fill="#FFAC33"
        d="M4.866 1.485c-0.363 -0.502 -1.047 -1.109 -2.251 -1.157l-0.06 -0.002 -0.02 0.056c-0.01 0.028 -0.048 0.083 -0.085 0.136 -0.109 0.157 -0.257 0.371 -0.194 0.563 0.035 0.107 0.13 0.187 0.282 0.239 0.303 0.102 0.933 0.618 1.056 1.239a1.008 1.008 0 0 1 -0.023 0.497c-0.26 -0.485 -0.731 -0.79 -1.305 -0.79 -0.93 0 -1.524 0.766 -1.524 1.707 0 0.813 0.594 1.707 1.524 1.707 0.005 0 0.009 -0.001 0.014 -0.001l0.015 0.001c0.096 0.007 0.257 0.018 0.452 0.018 0.974 0 2.214 -0.277 2.592 -1.595 0.249 -0.867 0.067 -1.87 -0.474 -2.618" />
    <path
        d="M3.026 4.928c-0.027 0.102 0.465 0.235 0.898 -0.234 0.488 -0.528 0.518 -1.86 -0.606 -2.768 -0.011 -0.003 -0.021 -0.005 -0.032 -0.008 0.145 0.188 0.264 0.406 0.31 0.64a1.008 1.008 0 0 1 -0.019 0.481c0.309 0.594 0.465 1.589 -0.55 1.889m1.914 -1.047c0.121 -0.015 0.303 -0.074 0.479 -0.15q0.025 -0.174 0.029 -0.35c-0.145 0.134 -0.311 0.245 -0.447 0.307 -0.224 0.102 -0.315 0.224 -0.061 0.193m-0.142 -1.321c-0.356 0.325 0.016 0.213 0.224 0.081 0.122 -0.077 0.21 -0.19 0.27 -0.316a3.104 3.104 0 0 0 -0.271 -0.603c0.019 0.332 -0.016 0.648 -0.223 0.837"
        fill="#F4900C" />
    <path fill="#FF839B"
        d="M3.343 0.542a0.162 0.162 0 0 0 -0.125 -0.142C2.963 0.34 1.175 0.07 0.794 0.07l-0.031 0c-0.227 0.01 -0.401 0.126 -0.443 0.296 -0.02 0.08 -0.033 0.283 0.26 0.454 0.088 0.052 0.142 0.106 0.144 0.145 0.002 0.038 -0.042 0.114 -0.17 0.205 -0.127 0.091 -0.179 0.231 -0.136 0.365 0.053 0.165 0.235 0.276 0.452 0.276 0.119 0 0.242 -0.031 0.366 -0.093 0.319 -0.16 0.749 -0.263 1.095 -0.263 0.171 0 0.315 0.024 0.43 0.071 0.058 0.024 0.115 0.036 0.168 0.036 0.099 0 0.314 -0.032 0.256 -0.116 -0.424 -0.606 0.169 -0.797 0.158 -0.907" />
    <path fill="#EA596E"
        d="M0.405 0.679c0.04 0.048 0.096 0.096 0.174 0.141 0.088 0.052 0.142 0.106 0.144 0.145 0.002 0.038 -0.042 0.114 -0.17 0.205 -0.097 0.069 -0.149 0.167 -0.15 0.269 1.711 -0.608 0.496 -0.352 0.002 -0.76" />
</svg>